<svg width="38" height="39" viewBox="0 0 38 39" fill="none" xmlns="http://www.w3.org/2000/svg">
<path d="M0.864802 38.5795C0.318943 38.0336 0.919732 36.9419 1.71106 36.396C2.50238 35.8502 4.00368 35.5454 6.62382 34.2353C9.24396 32.9253 13.131 28.7699 13.8589 27.3957C12.9491 28.042 10.9112 29.4439 10.0378 29.8806C9.16443 30.3173 8.38708 30.5613 7.3085 30.4265C5.78316 30.2358 4.9067 29.5531 4.03332 28.243C3.15994 26.933 3.66941 24.0581 4.03332 22.7844C2.9416 22.2386 0.535919 21.4478 0.21228 19.5092C0.0332861 18.4371 0.576202 17.3258 0.758153 16.7799C0.940104 16.2341 2.14435 14.7348 3.48746 14.0506C5.7747 12.8854 8.58218 14.0506 10.0378 14.5965C10.0378 14.5965 6.93332 12.7604 6.21677 10.7754C5.48934 8.76035 5.33217 6.91163 6.76263 5.3168C8.21419 3.69846 11.3115 3.67921 12.2213 4.22507L13.8589 2.04162C14.2228 1.49576 15.7065 0.488006 17.134 0.404033C18.4799 0.324863 19.38 0.624885 20.4092 1.49576C21.6486 2.54443 22.0111 3.12116 22.2923 4.77094C22.5735 6.42073 21.6829 10.4115 21.5009 11.8672L24.2303 8.04611C24.9581 7.13634 26.8504 5.3168 28.5972 5.3168C30.7806 5.3168 32.1178 5.98855 32.9641 7.08027C33.8103 8.17199 33.328 10.7754 32.9641 11.8672C33.146 11.8672 33.8374 12.0855 35.1475 12.9589C36.7851 14.0506 37.0306 15.1423 37.0306 16.2341C37.0306 17.3258 36.3772 19.2092 35.1475 20.601C32.3211 23.8 27.1415 21.6927 24.2303 21.1468C25.14 21.6927 27.3963 23.3727 29.143 25.7259C31.3265 28.6674 31.6314 31.8283 29.143 33.7017C27.2697 35.112 24.7761 34.2475 23.1385 33.7017C23.3205 34.4295 20.9903 36.4188 18.261 35.8729C15.5317 35.3271 15.3145 30.4265 15.4964 27.6972C14.4047 29.5167 11.4103 33.1436 10.0731 34.2353C8.73589 35.3271 7.96102 36.0231 6.62382 36.5689C5.28662 37.1148 1.41066 39.1254 0.864802 38.5795Z" fill="white"/>
<path opacity="0.8" d="M6.38662 21.6054C9.09996 19.7883 10.7762 19.345 14.0287 19.422" stroke="#40B89C" stroke-width="0.5" stroke-linecap="round"/>
<path opacity="0.8" d="M20.4444 22.3959C22.1023 24.9977 22.7026 26.6327 23.1969 29.8519" stroke="#40B89C" stroke-width="0.5" stroke-linecap="round"/>
<path opacity="0.8" d="M22.8134 15.8662C25.3555 14.1181 26.9684 13.4608 30.1683 12.8539" stroke="#40B89C" stroke-width="0.5" stroke-linecap="round"/>
<path opacity="0.8" d="M13.8942 6.09516C16.2913 8.19255 17.1581 9.70334 17.8681 12.9782" stroke="#40B89C" stroke-width="0.5" stroke-linecap="round"/>
</svg>
