<svg width="192" height="43" viewBox="0 0 192 43" fill="none" xmlns="http://www.w3.org/2000/svg">
<path d="M0.864802 40.5795C0.318943 40.0336 0.919732 38.9419 1.71106 38.396C2.50238 37.8502 4.00368 37.5454 6.62382 36.2353C9.24396 34.9253 13.131 30.7699 13.8589 29.3957C12.9491 30.042 10.9112 31.4439 10.0378 31.8806C9.16443 32.3173 8.38708 32.5613 7.3085 32.4265C5.78316 32.2358 4.9067 31.5531 4.03332 30.243C3.15994 28.933 3.66941 26.0581 4.03332 24.7844C2.9416 24.2386 0.535919 23.4478 0.21228 21.5092C0.0332861 20.4371 0.576202 19.3258 0.758153 18.7799C0.940104 18.2341 2.14435 16.7348 3.48746 16.0506C5.7747 14.8854 8.58218 16.0506 10.0378 16.5965C10.0378 16.5965 6.93332 14.7604 6.21677 12.7754C5.48934 10.7604 5.33217 8.91163 6.76263 7.3168C8.21419 5.69846 11.3115 5.67921 12.2213 6.22507L13.8589 4.04162C14.2228 3.49576 15.7065 2.48801 17.134 2.40403C18.4799 2.32486 19.38 2.62489 20.4092 3.49576C21.6486 4.54443 22.0111 5.12116 22.2923 6.77094C22.5735 8.42073 21.6829 12.4115 21.5009 13.8672L24.2303 10.0461C24.9581 9.13634 26.8504 7.3168 28.5972 7.3168C30.7806 7.3168 32.1178 7.98855 32.9641 9.08027C33.8103 10.172 33.328 12.7754 32.9641 13.8672C33.146 13.8672 33.8374 14.0855 35.1475 14.9589C36.7851 16.0506 37.0306 17.1423 37.0306 18.2341C37.0306 19.3258 36.3772 21.2092 35.1475 22.601C32.3211 25.8 27.1415 23.6927 24.2303 23.1468C25.14 23.6927 27.3963 25.3727 29.143 27.7259C31.3265 30.6674 31.6314 33.8283 29.143 35.7017C27.2697 37.112 24.7761 36.2475 23.1385 35.7017C23.3205 36.4295 20.9903 38.4188 18.261 37.8729C15.5317 37.3271 15.3145 32.4265 15.4964 29.6972C14.4047 31.5167 11.4103 35.1436 10.0731 36.2353C8.73589 37.3271 7.96102 38.0231 6.62382 38.5689C5.28662 39.1148 1.41066 41.1254 0.864802 40.5795Z" fill="white"/>
<path opacity="0.8" d="M6.38662 23.6054C9.09996 21.7883 10.7762 21.345 14.0287 21.422" stroke="#40B89C" stroke-width="0.5" stroke-linecap="round"/>
<path opacity="0.8" d="M20.4444 24.3959C22.1023 26.9977 22.7026 28.6327 23.1969 31.8519" stroke="#40B89C" stroke-width="0.5" stroke-linecap="round"/>
<path opacity="0.8" d="M22.8134 17.8662C25.3555 16.1181 26.9684 15.4608 30.1683 14.8539" stroke="#40B89C" stroke-width="0.5" stroke-linecap="round"/>
<path opacity="0.8" d="M13.8942 8.09516C16.2913 10.1925 17.1581 11.7033 17.8681 14.9782" stroke="#40B89C" stroke-width="0.5" stroke-linecap="round"/>
<path d="M46.6597 21.1069V19.639L48.1753 19.353V8.99144L46.6597 8.70547V7.22797H52.0931V8.70547L50.5775 8.99144V13.3191H56.6495V8.99144L55.1339 8.70547V7.22797H60.5577V8.70547L59.0421 8.99144V19.353L60.5577 19.639V21.1069H55.1339V19.639L56.6495 19.353V15.1874H50.5775V19.353L52.0931 19.639V21.1069H46.6597ZM66.6584 21.3071C65.667 21.3071 64.8155 21.0847 64.1037 20.6399C63.392 20.1887 62.8455 19.5691 62.4642 18.7811C62.0829 17.9931 61.8923 17.0843 61.8923 16.0548V15.8547C61.8923 14.8315 62.0829 13.926 62.4642 13.138C62.8455 12.35 63.392 11.7304 64.1037 11.2792C64.8155 10.828 65.6607 10.6024 66.6393 10.6024C67.6307 10.6024 68.4822 10.828 69.194 11.2792C69.9057 11.724 70.4522 12.3436 70.8335 13.138C71.2148 13.926 71.4054 14.8315 71.4054 15.8547V16.0548C71.4054 17.0907 71.2148 18.0026 70.8335 18.7906C70.4522 19.5786 69.9057 20.195 69.194 20.6399C68.4886 21.0847 67.6434 21.3071 66.6584 21.3071ZM66.6584 19.4579C67.4527 19.4579 68.0437 19.1433 68.4314 18.5142C68.819 17.8787 69.0128 17.0589 69.0128 16.0548V15.8547C69.0128 14.8697 68.8158 14.0594 68.4218 13.4239C68.0342 12.7821 67.44 12.4612 66.6393 12.4612C65.845 12.4612 65.254 12.7821 64.8663 13.4239C64.485 14.0594 64.2944 14.8697 64.2944 15.8547V16.0548C64.2944 17.0589 64.485 17.8787 64.8663 18.5142C65.254 19.1433 65.8513 19.4579 66.6584 19.4579ZM72.6732 21.1069V19.639L74.1126 19.353V12.5565L72.597 12.2705V10.793H76.3146L76.4289 12.1466C76.7594 11.6573 77.1788 11.2792 77.6872 11.0123C78.1956 10.739 78.7834 10.6024 79.4507 10.6024C80.1243 10.6024 80.6994 10.7549 81.176 11.0599C81.659 11.3586 82.0244 11.813 82.2722 12.423C82.59 11.8575 83.0062 11.4126 83.5209 11.0885C84.042 10.7644 84.6521 10.6024 85.3511 10.6024C86.3806 10.6024 87.194 10.9551 87.7914 11.6605C88.3887 12.3659 88.6874 13.4335 88.6874 14.8633V19.353L90.1268 19.639V21.1069H84.9317V19.639L86.2853 19.353V14.8442C86.2853 13.98 86.1391 13.3731 85.8468 13.0236C85.5545 12.6741 85.1255 12.4993 84.56 12.4993C84.0325 12.4993 83.5972 12.6677 83.254 13.0045C82.9172 13.335 82.698 13.7639 82.5963 14.2914V19.353L83.9022 19.639V21.1069H78.8978V19.639L80.2037 19.353V14.8442C80.2037 14.0118 80.0544 13.4144 79.7557 13.0522C79.457 12.6836 79.0249 12.4993 78.4593 12.4993C77.9891 12.4993 77.5919 12.5946 77.2678 12.7853C76.95 12.9759 76.6958 13.246 76.5052 13.5955V19.353L77.8588 19.639V21.1069H72.6732ZM95.9701 21.3071C94.9914 21.3071 94.1431 21.091 93.425 20.6589C92.7069 20.2204 92.1476 19.6167 91.7473 18.8478C91.3533 18.0789 91.1563 17.1987 91.1563 16.2074V15.807C91.1563 14.8029 91.3501 13.9101 91.7377 13.1284C92.1317 12.3404 92.6687 11.724 93.3487 11.2792C94.035 10.828 94.8198 10.6024 95.7032 10.6024C97.0949 10.6024 98.153 11.0155 98.8774 11.8416C99.6082 12.6677 99.9736 13.802 99.9736 15.2446V16.6172H93.6442L93.6251 16.6649C93.6633 17.4783 93.8984 18.1488 94.3305 18.6762C94.7626 19.1973 95.3791 19.4579 96.1798 19.4579C96.739 19.4579 97.2474 19.3816 97.7049 19.2291C98.1625 19.0766 98.5883 18.8605 98.9823 18.5809L99.7258 20.087C99.3191 20.4365 98.8011 20.7288 98.172 20.9639C97.5492 21.1927 96.8153 21.3071 95.9701 21.3071ZM93.6823 14.93H97.6763V14.6822C97.6763 14.0086 97.5175 13.4621 97.1997 13.0426C96.8883 12.6232 96.399 12.4135 95.7318 12.4135C95.1471 12.4135 94.6737 12.6486 94.3115 13.1189C93.9556 13.5892 93.7363 14.177 93.6537 14.8824L93.6823 14.93ZM101.985 21.1069V18.8859H104.378V21.1069H101.985ZM110.964 21.3071C109.998 21.3071 109.16 21.0879 108.448 20.6494C107.742 20.2045 107.196 19.5945 106.808 18.8192C106.427 18.0375 106.236 17.1383 106.236 16.1216V15.7879C106.236 14.7902 106.427 13.9005 106.808 13.1189C107.19 12.3373 107.733 11.724 108.438 11.2792C109.15 10.828 109.989 10.6024 110.955 10.6024C111.838 10.6024 112.607 10.7454 113.262 11.0313C113.916 11.311 114.453 11.6605 114.873 12.0799L114.882 14.8347H113.052L112.699 13.014C112.521 12.8298 112.296 12.6836 112.022 12.5756C111.749 12.4612 111.45 12.404 111.126 12.404C110.332 12.404 109.719 12.7185 109.287 13.3477C108.855 13.9705 108.638 14.7839 108.638 15.7879V16.1216C108.638 17.2146 108.855 18.0439 109.287 18.6095C109.725 19.1751 110.288 19.4579 110.974 19.4579C111.52 19.4579 111.968 19.3085 112.318 19.0098C112.667 18.7112 112.896 18.2981 113.004 17.7706H115.082L115.111 17.8278C114.996 18.8383 114.606 19.6707 113.938 20.3253C113.277 20.9798 112.286 21.3071 110.964 21.3071ZM121.383 21.3071C120.404 21.3071 119.556 21.091 118.838 20.6589C118.12 20.2204 117.561 19.6167 117.16 18.8478C116.766 18.0789 116.569 17.1987 116.569 16.2074V15.807C116.569 14.8029 116.763 13.9101 117.151 13.1284C117.545 12.3404 118.082 11.724 118.762 11.2792C119.448 10.828 120.233 10.6024 121.116 10.6024C122.508 10.6024 123.566 11.0155 124.29 11.8416C125.021 12.6677 125.387 13.802 125.387 15.2446V16.6172H119.057L119.038 16.6649C119.076 17.4783 119.311 18.1488 119.744 18.6762C120.176 19.1973 120.792 19.4579 121.593 19.4579C122.152 19.4579 122.66 19.3816 123.118 19.2291C123.575 19.0766 124.001 18.8605 124.395 18.5809L125.139 20.087C124.732 20.4365 124.214 20.7288 123.585 20.9639C122.962 21.1927 122.228 21.3071 121.383 21.3071ZM119.095 14.93H123.089V14.6822C123.089 14.0086 122.93 13.4621 122.613 13.0426C122.301 12.6232 121.812 12.4135 121.145 12.4135C120.56 12.4135 120.087 12.6486 119.724 13.1189C119.369 13.5892 119.149 14.177 119.067 14.8824L119.095 14.93ZM126.864 21.1069V19.639L128.284 19.353V12.5565L126.778 12.2705V10.793H130.496L130.62 12.0894L130.639 12.2991C131.192 11.168 131.992 10.6024 133.041 10.6024C133.435 10.6024 133.788 10.6532 134.099 10.7549L133.823 12.9759L132.479 12.8997C132.04 12.8742 131.678 12.96 131.392 13.157C131.106 13.354 130.871 13.6273 130.687 13.9768V19.353L132.116 19.639V21.1069H126.864ZM138.37 21.3071C137.321 21.3071 136.504 21.037 135.92 20.4969C135.335 19.9567 135.043 19.2132 135.043 18.2663C135.043 17.294 135.437 16.506 136.225 15.9023C137.019 15.2986 138.157 14.9968 139.637 14.9968H141.21V14.1293C141.21 13.5828 141.045 13.1475 140.714 12.8234C140.39 12.4993 139.917 12.3373 139.294 12.3373C138.938 12.3373 138.624 12.3817 138.35 12.4707C138.077 12.5533 137.833 12.6741 137.616 12.8329L137.407 14.2246H135.634L135.615 11.6795C136.117 11.3427 136.679 11.079 137.302 10.8884C137.931 10.6977 138.627 10.6024 139.389 10.6024C140.699 10.6024 141.728 10.9106 142.478 11.527C143.234 12.1434 143.612 13.0204 143.612 14.1579V18.7048C143.612 18.8446 143.612 18.9812 143.612 19.1147C143.619 19.2418 143.628 19.3721 143.641 19.5055L144.689 19.639V21.1069H141.553C141.49 20.8845 141.429 20.6684 141.372 20.4587C141.321 20.249 141.283 20.0393 141.258 19.8296C140.915 20.2617 140.498 20.6176 140.009 20.8972C139.52 21.1705 138.973 21.3071 138.37 21.3071ZM138.913 19.4483C139.402 19.4483 139.853 19.3371 140.266 19.1147C140.686 18.8859 141 18.6 141.21 18.2568V16.5315H139.609C138.891 16.5315 138.347 16.6999 137.979 17.0367C137.616 17.3671 137.435 17.7548 137.435 18.1996C137.435 19.0321 137.928 19.4483 138.913 19.4483ZM145.824 21.1069V19.639L147.263 19.353V12.5565L145.748 12.2705V10.793H149.465L149.579 12.1466C149.91 11.6573 150.329 11.2792 150.838 11.0123C151.346 10.739 151.934 10.6024 152.601 10.6024C153.275 10.6024 153.85 10.7549 154.327 11.0599C154.81 11.3586 155.175 11.813 155.423 12.423C155.74 11.8575 156.157 11.4126 156.671 11.0885C157.193 10.7644 157.803 10.6024 158.502 10.6024C159.531 10.6024 160.345 10.9551 160.942 11.6605C161.539 12.3659 161.838 13.4335 161.838 14.8633V19.353L163.277 19.639V21.1069H158.082V19.639L159.436 19.353V14.8442C159.436 13.98 159.29 13.3731 158.997 13.0236C158.705 12.6741 158.276 12.4993 157.71 12.4993C157.183 12.4993 156.748 12.6677 156.405 13.0045C156.068 13.335 155.849 13.7639 155.747 14.2914V19.353L157.053 19.639V21.1069H152.048V19.639L153.354 19.353V14.8442C153.354 14.0118 153.205 13.4144 152.906 13.0522C152.608 12.6836 152.175 12.4993 151.61 12.4993C151.14 12.4993 150.742 12.5946 150.418 12.7853C150.101 12.9759 149.846 13.246 149.656 13.5955V19.353L151.009 19.639V21.1069H145.824ZM164.326 21.1069V19.639L165.756 19.353V12.5565L164.24 12.2705V10.793H168.158V19.353L169.578 19.639V21.1069H164.326ZM165.66 8.45763V6.23661H168.158V8.45763H165.66ZM175.44 21.3071C174.475 21.3071 173.636 21.0879 172.924 20.6494C172.219 20.2045 171.672 19.5945 171.284 18.8192C170.903 18.0375 170.712 17.1383 170.712 16.1216V15.7879C170.712 14.7902 170.903 13.9005 171.284 13.1189C171.666 12.3373 172.209 11.724 172.914 11.2792C173.626 10.828 174.465 10.6024 175.431 10.6024C176.314 10.6024 177.083 10.7454 177.738 11.0313C178.392 11.311 178.929 11.6605 179.349 12.0799L179.358 14.8347H177.528L177.175 13.014C176.997 12.8298 176.772 12.6836 176.499 12.5756C176.225 12.4612 175.927 12.404 175.603 12.404C174.808 12.404 174.195 12.7185 173.763 13.3477C173.331 13.9705 173.115 14.7839 173.115 15.7879V16.1216C173.115 17.2146 173.331 18.0439 173.763 18.6095C174.201 19.1751 174.764 19.4579 175.45 19.4579C175.997 19.4579 176.445 19.3085 176.794 19.0098C177.144 18.7112 177.372 18.2981 177.48 17.7706H179.558L179.587 17.8278C179.473 18.8383 179.082 19.6707 178.415 20.3253C177.754 20.9798 176.762 21.3071 175.44 21.3071ZM185.249 21.3071C184.512 21.3071 183.823 21.2372 183.181 21.0974C182.545 20.9512 181.907 20.7384 181.265 20.4587L181.236 17.7325H182.961L183.324 19.2195C183.603 19.3466 183.886 19.442 184.172 19.5055C184.458 19.5691 184.779 19.6008 185.135 19.6008C185.821 19.6008 186.304 19.4801 186.584 19.2386C186.87 18.9971 187.013 18.6985 187.013 18.3426C187.013 18.0058 186.863 17.7135 186.565 17.4656C186.272 17.2178 185.71 17.0049 184.877 16.827C183.638 16.56 182.729 16.1724 182.151 15.664C181.573 15.1493 181.284 14.482 181.284 13.6622C181.284 13.103 181.433 12.5915 181.732 12.1275C182.037 11.6636 182.482 11.2951 183.066 11.0218C183.657 10.7485 184.382 10.6119 185.24 10.6119C186.021 10.6119 186.714 10.6945 187.318 10.8598C187.928 11.0186 188.446 11.2315 188.871 11.4984L188.938 14.1198H187.222L186.927 12.7567C186.514 12.4644 185.986 12.3182 185.344 12.3182C184.817 12.3182 184.401 12.4358 184.096 12.6709C183.791 12.8997 183.638 13.1888 183.638 13.5383C183.638 13.8434 183.759 14.1071 184 14.3295C184.242 14.5519 184.776 14.7553 185.602 14.9396C186.943 15.251 187.902 15.6577 188.481 16.1597C189.059 16.6617 189.348 17.3258 189.348 18.1519C189.348 19.0734 189.011 19.8296 188.338 20.4206C187.664 21.0116 186.635 21.3071 185.249 21.3071Z" fill="white"/>
<path opacity="0.8" d="M47.0872 38.9575V37.9048L47.8118 37.8022L51.1068 29.0044H52.7816L56.0355 37.8022L56.7601 37.9048V38.9575H53.595V37.9048L54.306 37.7749L53.7796 36.2095H50.0745L49.5345 37.7749L50.2523 37.9048V38.9575H47.0872ZM50.5257 34.8833H53.3353L52.0433 31.2056L51.9544 30.939H51.9134L51.8177 31.2192L50.5257 34.8833ZM57.4642 38.9575V37.9048L58.4964 37.6997V32.8257L57.4095 32.6206V31.561H60.0755L60.1575 32.5317C60.3945 32.1808 60.6953 31.9097 61.0599 31.7183C61.4245 31.5223 61.846 31.4243 62.3245 31.4243C62.8076 31.4243 63.22 31.5337 63.5618 31.7524C63.9082 31.9666 64.1702 32.2925 64.348 32.73C64.5758 32.3244 64.8743 32.0054 65.2435 31.7729C65.6172 31.5405 66.0547 31.4243 66.556 31.4243C67.2943 31.4243 67.8776 31.6772 68.306 32.1831C68.7344 32.689 68.9485 33.4546 68.9485 34.48V37.6997L69.9808 37.9048V38.9575H66.2552V37.9048L67.2259 37.6997V34.4663C67.2259 33.8465 67.1211 33.4113 66.9114 33.1606C66.7018 32.91 66.3942 32.7847 65.9886 32.7847C65.6103 32.7847 65.2982 32.9054 65.0521 33.147C64.8105 33.384 64.6533 33.6916 64.5804 34.0698V37.6997L65.5169 37.9048V38.9575H61.928V37.9048L62.8646 37.6997V34.4663C62.8646 33.8693 62.7575 33.4409 62.5433 33.1812C62.3291 32.9168 62.0192 32.7847 61.6136 32.7847C61.2763 32.7847 60.9915 32.853 60.7591 32.9897C60.5312 33.1265 60.3489 33.3201 60.2122 33.5708V37.6997L61.1829 37.9048V38.9575H57.4642ZM73.2278 39.1011C72.4759 39.1011 71.8903 38.9074 71.471 38.52C71.0517 38.1326 70.8421 37.5994 70.8421 36.9204C70.8421 36.2231 71.1247 35.658 71.6898 35.2251C72.2594 34.7922 73.0752 34.5757 74.137 34.5757H75.265V33.9536C75.265 33.5617 75.1465 33.2495 74.9095 33.0171C74.6771 32.7847 74.3375 32.6685 73.8909 32.6685C73.6357 32.6685 73.4101 32.7004 73.2142 32.7642C73.0182 32.8234 72.8428 32.91 72.6878 33.0239L72.5374 34.022H71.2659L71.2523 32.1968C71.6123 31.9552 72.0156 31.7661 72.4622 31.6294C72.9134 31.4927 73.4124 31.4243 73.9593 31.4243C74.8981 31.4243 75.6364 31.6453 76.1741 32.0874C76.7165 32.5295 76.9876 33.1584 76.9876 33.9741V37.2349C76.9876 37.3351 76.9876 37.4331 76.9876 37.5288C76.9922 37.62 76.999 37.7134 77.0081 37.8091L77.7601 37.9048V38.9575H75.511C75.4655 38.798 75.4222 38.6431 75.3812 38.4927C75.3447 38.3423 75.3174 38.1919 75.2991 38.0415C75.053 38.3514 74.7545 38.6066 74.4036 38.8071C74.0527 39.0031 73.6608 39.1011 73.2278 39.1011ZM73.6175 37.7681C73.9684 37.7681 74.292 37.6883 74.5882 37.5288C74.889 37.3647 75.1146 37.1597 75.265 36.9136V35.6763H74.1165C73.6015 35.6763 73.2119 35.797 72.9476 36.0386C72.6878 36.2756 72.5579 36.5535 72.5579 36.8726C72.5579 37.4696 72.9111 37.7681 73.6175 37.7681ZM78.7581 38.9575V37.8774L82.6819 32.8052H80.3646L80.1663 34.063H78.888V31.561H84.7669V32.689L80.9525 37.6997H83.4954L83.7415 36.3804H84.972V38.9575H78.7581ZM85.9222 38.9575V37.9048L86.9476 37.6997V32.8257L85.8607 32.6206V31.561H88.6702V37.6997L89.6888 37.9048V38.9575H85.9222ZM86.8792 29.8862V28.2935H88.6702V29.8862H86.8792ZM90.4271 38.9575V37.9048L91.4525 37.6997V32.8257L90.3724 32.6206V31.561H93.0384L93.1273 32.6343C93.3734 32.2515 93.6787 31.9552 94.0433 31.7456C94.4124 31.5314 94.8294 31.4243 95.2943 31.4243C96.0553 31.4243 96.6478 31.659 97.0716 32.1284C97.4954 32.5978 97.7073 33.327 97.7073 34.3159V37.6997L98.7327 37.9048V38.9575H95.0208V37.9048L95.9847 37.6997V34.3296C95.9847 33.769 95.873 33.3726 95.6497 33.1401C95.4264 32.9032 95.0937 32.7847 94.6517 32.7847C94.3235 32.7847 94.0342 32.8599 93.7835 33.0103C93.5329 33.1561 93.3301 33.3612 93.1751 33.6255V37.6997L94.1116 37.9048V38.9575H90.4271ZM102.684 41.9448C102.319 41.9448 101.914 41.8947 101.467 41.7944C101.025 41.6987 100.635 41.5643 100.298 41.3911L100.654 40.1265C100.945 40.2632 101.267 40.3726 101.617 40.4546C101.968 40.5366 102.301 40.5776 102.616 40.5776C103.181 40.5776 103.593 40.4204 103.853 40.106C104.117 39.7961 104.249 39.3563 104.249 38.7866V38.2056C103.78 38.8026 103.149 39.1011 102.356 39.1011C101.75 39.1011 101.23 38.9507 100.797 38.6499C100.364 38.3491 100.032 37.9276 99.7991 37.3853C99.5713 36.8429 99.4573 36.214 99.4573 35.4985V35.355C99.4573 34.5711 99.5713 33.8853 99.7991 33.2974C100.032 32.7049 100.362 32.2446 100.79 31.9165C101.219 31.5884 101.734 31.4243 102.335 31.4243C102.786 31.4243 103.178 31.5177 103.511 31.7046C103.844 31.8869 104.126 32.1489 104.359 32.4907L104.489 31.561H106.861V32.6206L105.972 32.812V38.7935C105.972 39.7596 105.683 40.5252 105.104 41.0903C104.525 41.66 103.718 41.9448 102.684 41.9448ZM102.821 37.7407C103.463 37.7407 103.939 37.465 104.249 36.9136V33.6187C104.099 33.3589 103.905 33.1561 103.668 33.0103C103.431 32.8599 103.151 32.7847 102.827 32.7847C102.262 32.7847 101.845 33.0239 101.576 33.5024C101.312 33.9764 101.18 34.5939 101.18 35.355V35.4985C101.18 36.1821 101.31 36.7267 101.57 37.1323C101.834 37.5379 102.251 37.7407 102.821 37.7407ZM114.223 41.9448C113.858 41.9448 113.453 41.8947 113.006 41.7944C112.564 41.6987 112.174 41.5643 111.837 41.3911L112.193 40.1265C112.484 40.2632 112.806 40.3726 113.157 40.4546C113.507 40.5366 113.84 40.5776 114.155 40.5776C114.72 40.5776 115.132 40.4204 115.392 40.106C115.656 39.7961 115.788 39.3563 115.788 38.7866V38.2056C115.319 38.8026 114.688 39.1011 113.895 39.1011C113.289 39.1011 112.769 38.9507 112.336 38.6499C111.903 38.3491 111.571 37.9276 111.338 37.3853C111.11 36.8429 110.996 36.214 110.996 35.4985V35.355C110.996 34.5711 111.11 33.8853 111.338 33.2974C111.571 32.7049 111.901 32.2446 112.329 31.9165C112.758 31.5884 113.273 31.4243 113.874 31.4243C114.326 31.4243 114.717 31.5177 115.05 31.7046C115.383 31.8869 115.665 32.1489 115.898 32.4907L116.028 31.561H118.4V32.6206L117.511 32.812V38.7935C117.511 39.7596 117.222 40.5252 116.643 41.0903C116.064 41.66 115.257 41.9448 114.223 41.9448ZM114.36 37.7407C115.002 37.7407 115.478 37.465 115.788 36.9136V33.6187C115.638 33.3589 115.444 33.1561 115.207 33.0103C114.97 32.8599 114.69 32.7847 114.367 32.7847C113.801 32.7847 113.384 33.0239 113.116 33.5024C112.851 33.9764 112.719 34.5939 112.719 35.355V35.4985C112.719 36.1821 112.849 36.7267 113.109 37.1323C113.373 37.5379 113.79 37.7407 114.36 37.7407ZM118.953 38.9575V37.9048L119.986 37.6997V29.5581L118.892 29.353V28.2935H121.708V37.6997L122.734 37.9048V38.9575H118.953ZM125.96 39.1011C125.208 39.1011 124.623 38.9074 124.203 38.52C123.784 38.1326 123.575 37.5994 123.575 36.9204C123.575 36.2231 123.857 35.658 124.422 35.2251C124.992 34.7922 125.808 34.5757 126.869 34.5757H127.997V33.9536C127.997 33.5617 127.879 33.2495 127.642 33.0171C127.409 32.7847 127.07 32.6685 126.623 32.6685C126.368 32.6685 126.143 32.7004 125.947 32.7642C125.751 32.8234 125.575 32.91 125.42 33.0239L125.27 34.022H123.998L123.985 32.1968C124.345 31.9552 124.748 31.7661 125.195 31.6294C125.646 31.4927 126.145 31.4243 126.692 31.4243C127.631 31.4243 128.369 31.6453 128.907 32.0874C129.449 32.5295 129.72 33.1584 129.72 33.9741V37.2349C129.72 37.3351 129.72 37.4331 129.72 37.5288C129.725 37.62 129.731 37.7134 129.741 37.8091L130.492 37.9048V38.9575H128.243C128.198 38.798 128.155 38.6431 128.114 38.4927C128.077 38.3423 128.05 38.1919 128.032 38.0415C127.785 38.3514 127.487 38.6066 127.136 38.8071C126.785 39.0031 126.393 39.1011 125.96 39.1011ZM126.35 37.7681C126.701 37.7681 127.024 37.6883 127.321 37.5288C127.621 37.3647 127.847 37.1597 127.997 36.9136V35.6763H126.849C126.334 35.6763 125.944 35.797 125.68 36.0386C125.42 36.2756 125.29 36.5535 125.29 36.8726C125.29 37.4696 125.644 37.7681 126.35 37.7681ZM134.451 39.1011C133.922 39.1011 133.427 39.0509 132.967 38.9507C132.511 38.8459 132.053 38.6932 131.593 38.4927L131.573 36.5376H132.81L133.07 37.604C133.27 37.6951 133.473 37.7635 133.678 37.8091C133.883 37.8547 134.113 37.8774 134.368 37.8774C134.861 37.8774 135.207 37.7909 135.408 37.6177C135.613 37.4445 135.715 37.2303 135.715 36.9751C135.715 36.7336 135.608 36.5239 135.394 36.3462C135.184 36.1685 134.781 36.0158 134.184 35.8882C133.295 35.6968 132.644 35.4188 132.229 35.0542C131.814 34.6851 131.607 34.2065 131.607 33.6187C131.607 33.2176 131.714 32.8507 131.928 32.5181C132.147 32.1854 132.466 31.9211 132.885 31.7251C133.309 31.5291 133.828 31.4312 134.444 31.4312C135.004 31.4312 135.501 31.4904 135.934 31.6089C136.371 31.7228 136.743 31.8755 137.048 32.0669L137.096 33.9468H135.866L135.654 32.9692C135.357 32.7596 134.979 32.6548 134.519 32.6548C134.141 32.6548 133.842 32.7391 133.623 32.9077C133.405 33.0718 133.295 33.2791 133.295 33.5298C133.295 33.7485 133.382 33.9377 133.555 34.0972C133.728 34.2567 134.111 34.4025 134.703 34.5347C135.665 34.758 136.353 35.0496 136.768 35.4097C137.183 35.7697 137.39 36.2459 137.39 36.8384C137.39 37.4992 137.148 38.0415 136.665 38.4653C136.182 38.8892 135.444 39.1011 134.451 39.1011ZM141.492 39.1011C140.963 39.1011 140.468 39.0509 140.008 38.9507C139.552 38.8459 139.094 38.6932 138.634 38.4927L138.614 36.5376H139.851L140.111 37.604C140.311 37.6951 140.514 37.7635 140.719 37.8091C140.924 37.8547 141.154 37.8774 141.409 37.8774C141.902 37.8774 142.248 37.7909 142.449 37.6177C142.654 37.4445 142.756 37.2303 142.756 36.9751C142.756 36.7336 142.649 36.5239 142.435 36.3462C142.225 36.1685 141.822 36.0158 141.225 35.8882C140.336 35.6968 139.685 35.4188 139.27 35.0542C138.855 34.6851 138.648 34.2065 138.648 33.6187C138.648 33.2176 138.755 32.8507 138.969 32.5181C139.188 32.1854 139.507 31.9211 139.926 31.7251C140.35 31.5291 140.869 31.4312 141.485 31.4312C142.045 31.4312 142.542 31.4904 142.975 31.6089C143.412 31.7228 143.784 31.8755 144.089 32.0669L144.137 33.9468H142.907L142.695 32.9692C142.398 32.7596 142.02 32.6548 141.56 32.6548C141.182 32.6548 140.883 32.7391 140.664 32.9077C140.446 33.0718 140.336 33.2791 140.336 33.5298C140.336 33.7485 140.423 33.9377 140.596 34.0972C140.769 34.2567 141.152 34.4025 141.744 34.5347C142.706 34.758 143.394 35.0496 143.809 35.4097C144.224 35.7697 144.431 36.2459 144.431 36.8384C144.431 37.4992 144.189 38.0415 143.706 38.4653C143.223 38.8892 142.485 39.1011 141.492 39.1011Z" fill="white"/>
</svg>
