<svg width="188" height="36" viewBox="0 0 188 36" fill="none" xmlns="http://www.w3.org/2000/svg">
<path d="M0.630403 34.9792C0.130406 34.4792 0.680718 33.4791 1.40556 32.9792C2.13039 32.4792 3.50556 32.2 5.90556 31C8.30556 29.8 11.866 25.9937 12.5327 24.735C11.6994 25.327 9.8327 26.6112 9.0327 27.0112C8.2327 27.4112 7.52066 27.6347 6.53271 27.5112C5.13552 27.3365 4.33271 26.7112 3.5327 25.5112C2.7327 24.3112 3.19937 21.6778 3.5327 20.5112C2.53271 20.0112 0.329153 19.2868 0.0327055 17.5112C-0.13125 16.5291 0.366051 15.5112 0.532715 15.0112C0.699378 14.5112 1.80244 13.1379 3.03271 12.5112C5.12778 11.4439 7.69937 12.5112 9.0327 13.0112C9.0327 13.0112 6.18905 11.3293 5.53271 9.51116C4.86639 7.66539 4.72243 5.97199 6.03271 4.51116C7.3623 3.0288 10.1994 3.01116 11.0327 3.51116L12.5327 1.51116C12.866 1.01116 14.2251 0.088081 15.5327 0.0111635C16.7655 -0.0613551 17.59 0.21346 18.5327 1.01116C19.6679 1.97173 20 2.5 20.2576 4.01117C20.5151 5.52234 19.6994 9.17783 19.5327 10.5112L22.0327 7.01116C22.6994 6.17783 24.4327 4.51116 26.0327 4.51116C28.0327 4.51116 29.2576 5.12648 30.0327 6.12647C30.8079 7.12646 30.366 9.51116 30.0327 10.5112C30.1994 10.5112 30.8327 10.7112 32.0327 11.5112C33.5327 12.5112 33.7576 13.5112 33.7576 14.5112C33.7576 15.5112 33.159 17.2363 32.0327 18.5112C29.4438 21.4414 24.6994 19.5112 22.0327 19.0112C22.866 19.5112 24.9327 21.05 26.5327 23.2055C28.5327 25.8998 28.812 28.7952 26.5327 30.5112C24.8167 31.803 22.5327 31.0112 21.0327 30.5112C21.1994 31.1778 19.065 33 16.565 32.5C14.065 32 13.866 27.5112 14.0327 25.0112C13.0327 26.6778 10.2899 30 9.06502 31C7.84017 32 7.1304 32.6375 5.90556 33.1375C4.68071 33.6375 1.1304 35.4792 0.630403 34.9792Z" fill="white"/>
<path opacity="0.8" d="M5.68818 19.4311C8.17354 17.7667 9.70894 17.3606 12.6882 17.4311" stroke="#283949" stroke-width="0.5" stroke-linecap="round"/>
<path opacity="0.8" d="M18.565 20.1553C20.0836 22.5385 20.6335 24.0362 21.0862 26.9849" stroke="#283949" stroke-width="0.5" stroke-linecap="round"/>
<path opacity="0.8" d="M20.7349 14.1742C23.0634 12.5729 24.5409 11.9708 27.4719 11.415" stroke="#283949" stroke-width="0.5" stroke-linecap="round"/>
<path opacity="0.8" d="M12.565 5.22424C14.7608 7.14541 15.5547 8.52927 16.2051 11.529" stroke="#283949" stroke-width="0.5" stroke-linecap="round"/>
<path d="M43.3867 25.7632V24.2952L44.9023 24.0092V13.6477L43.3867 13.3617V11.8842H48.8201V13.3617L47.3045 13.6477V17.9753H53.3765V13.6477L51.8609 13.3617V11.8842H57.2847V13.3617L55.7691 13.6477V24.0092L57.2847 24.2952V25.7632H51.8609V24.2952L53.3765 24.0092V19.8437H47.3045V24.0092L48.8201 24.2952V25.7632H43.3867ZM63.3854 25.9634C62.394 25.9634 61.5425 25.7409 60.8307 25.2961C60.119 24.8449 59.5725 24.2253 59.1912 23.4373C58.8099 22.6493 58.6192 21.7406 58.6192 20.7111V20.5109C58.6192 19.4878 58.8099 18.5822 59.1912 17.7942C59.5725 17.0062 60.119 16.3866 60.8307 15.9354C61.5425 15.4842 62.3877 15.2586 63.3663 15.2586C64.3577 15.2586 65.2092 15.4842 65.921 15.9354C66.6327 16.3803 67.1792 16.9999 67.5605 17.7942C67.9418 18.5822 68.1324 19.4878 68.1324 20.5109V20.7111C68.1324 21.7469 67.9418 22.6588 67.5605 23.4468C67.1792 24.2348 66.6327 24.8513 65.921 25.2961C65.2156 25.7409 64.3704 25.9634 63.3854 25.9634ZM63.3854 24.1141C64.1797 24.1141 64.7707 23.7995 65.1584 23.1704C65.546 22.5349 65.7398 21.7152 65.7398 20.7111V20.5109C65.7398 19.5259 65.5428 18.7157 65.1488 18.0802C64.7612 17.4383 64.167 17.1174 63.3663 17.1174C62.572 17.1174 61.981 17.4383 61.5933 18.0802C61.212 18.7157 61.0214 19.5259 61.0214 20.5109V20.7111C61.0214 21.7152 61.212 22.5349 61.5933 23.1704C61.981 23.7995 62.5783 24.1141 63.3854 24.1141ZM69.4002 25.7632V24.2952L70.8396 24.0092V17.2127L69.324 16.9268V15.4493H73.0415L73.1559 16.8029C73.4864 16.3135 73.9058 15.9354 74.4142 15.6685C74.9226 15.3953 75.5104 15.2586 76.1777 15.2586C76.8513 15.2586 77.4264 15.4112 77.903 15.7162C78.386 16.0149 78.7514 16.4692 78.9992 17.0793C79.3169 16.5137 79.7332 16.0689 80.2479 15.7448C80.769 15.4207 81.3791 15.2586 82.0781 15.2586C83.1076 15.2586 83.921 15.6113 84.5184 16.3167C85.1157 17.0221 85.4144 18.0897 85.4144 19.5196V24.0092L86.8538 24.2952V25.7632H81.6587V24.2952L83.0123 24.0092V19.5005C83.0123 18.6362 82.8661 18.0293 82.5738 17.6798C82.2815 17.3303 81.8525 17.1556 81.2869 17.1556C80.7595 17.1556 80.3242 17.324 79.981 17.6608C79.6442 17.9912 79.425 18.4202 79.3233 18.9476V24.0092L80.6292 24.2952V25.7632H75.6248V24.2952L76.9307 24.0092V19.5005C76.9307 18.668 76.7814 18.0707 76.4827 17.7084C76.184 17.3398 75.7519 17.1556 75.1863 17.1556C74.716 17.1556 74.3189 17.2509 73.9948 17.4415C73.677 17.6322 73.4228 17.9022 73.2322 18.2518V24.0092L74.5858 24.2952V25.7632H69.4002ZM92.6971 25.9634C91.7184 25.9634 90.87 25.7473 90.1519 25.3152C89.4338 24.8767 88.8746 24.273 88.4743 23.504C88.0803 22.7351 87.8833 21.855 87.8833 20.8636V20.4632C87.8833 19.4592 88.0771 18.5663 88.4647 17.7847C88.8587 16.9967 89.3957 16.3803 90.0757 15.9354C90.762 15.4842 91.5468 15.2586 92.4302 15.2586C93.8219 15.2586 94.8799 15.6717 95.6044 16.4978C96.3352 17.324 96.7006 18.4583 96.7006 19.9008V21.2735H90.3712L90.3521 21.3212C90.3903 22.1346 90.6254 22.805 91.0575 23.3325C91.4896 23.8536 92.1061 24.1141 92.9068 24.1141C93.466 24.1141 93.9744 24.0378 94.4319 23.8853C94.8895 23.7328 95.3153 23.5167 95.7093 23.2371L96.4528 24.7432C96.0461 25.0927 95.5281 25.3851 94.899 25.6202C94.2762 25.849 93.5423 25.9634 92.6971 25.9634ZM90.4093 19.5863H94.4033V19.3384C94.4033 18.6648 94.2445 18.1183 93.9267 17.6989C93.6153 17.2795 93.126 17.0698 92.4588 17.0698C91.8741 17.0698 91.4007 17.3049 91.0384 17.7752C90.6826 18.2454 90.4633 18.8332 90.3807 19.5386L90.4093 19.5863ZM98.7119 25.7632V23.5422H101.105V25.7632H98.7119ZM107.691 25.9634C106.725 25.9634 105.887 25.7441 105.175 25.3056C104.469 24.8608 103.923 24.2507 103.535 23.4754C103.154 22.6938 102.963 21.7946 102.963 20.7778V20.4442C102.963 19.4465 103.154 18.5568 103.535 17.7752C103.917 16.9935 104.46 16.3803 105.165 15.9354C105.877 15.4842 106.716 15.2586 107.682 15.2586C108.565 15.2586 109.334 15.4016 109.989 15.6876C110.643 15.9672 111.18 16.3167 111.6 16.7361L111.609 19.491H109.779L109.426 17.6703C109.248 17.486 109.023 17.3398 108.749 17.2318C108.476 17.1174 108.177 17.0602 107.853 17.0602C107.059 17.0602 106.446 17.3748 106.014 18.0039C105.581 18.6267 105.365 19.4401 105.365 20.4442V20.7778C105.365 21.8708 105.581 22.7002 106.014 23.2657C106.452 23.8313 107.015 24.1141 107.701 24.1141C108.247 24.1141 108.695 23.9648 109.045 23.6661C109.394 23.3674 109.623 22.9543 109.731 22.4269H111.809L111.838 22.4841C111.723 23.4945 111.333 24.327 110.665 24.9815C110.004 25.6361 109.013 25.9634 107.691 25.9634ZM118.11 25.9634C117.131 25.9634 116.283 25.7473 115.565 25.3152C114.847 24.8767 114.288 24.273 113.887 23.504C113.493 22.7351 113.296 21.855 113.296 20.8636V20.4632C113.296 19.4592 113.49 18.5663 113.878 17.7847C114.272 16.9967 114.809 16.3803 115.489 15.9354C116.175 15.4842 116.96 15.2586 117.843 15.2586C119.235 15.2586 120.293 15.6717 121.017 16.4978C121.748 17.324 122.114 18.4583 122.114 19.9008V21.2735H115.784L115.765 21.3212C115.803 22.1346 116.038 22.805 116.471 23.3325C116.903 23.8536 117.519 24.1141 118.32 24.1141C118.879 24.1141 119.387 24.0378 119.845 23.8853C120.302 23.7328 120.728 23.5167 121.122 23.2371L121.866 24.7432C121.459 25.0927 120.941 25.3851 120.312 25.6202C119.689 25.849 118.955 25.9634 118.11 25.9634ZM115.822 19.5863H119.816V19.3384C119.816 18.6648 119.657 18.1183 119.34 17.6989C119.028 17.2795 118.539 17.0698 117.872 17.0698C117.287 17.0698 116.814 17.3049 116.451 17.7752C116.096 18.2454 115.876 18.8332 115.794 19.5386L115.822 19.5863ZM123.591 25.7632V24.2952L125.011 24.0092V17.2127L123.505 16.9268V15.4493H127.223L127.347 16.7457L127.366 16.9554C127.919 15.8242 128.719 15.2586 129.768 15.2586C130.162 15.2586 130.515 15.3095 130.826 15.4112L130.55 17.6322L129.206 17.5559C128.767 17.5305 128.405 17.6163 128.119 17.8133C127.833 18.0103 127.598 18.2835 127.414 18.6331V24.0092L128.843 24.2952V25.7632H123.591ZM135.097 25.9634C134.048 25.9634 133.231 25.6933 132.647 25.1531C132.062 24.613 131.77 23.8694 131.77 22.9226C131.77 21.9503 132.164 21.1623 132.952 20.5586C133.746 19.9549 134.884 19.653 136.364 19.653H137.937V18.7856C137.937 18.2391 137.772 17.8037 137.441 17.4797C137.117 17.1556 136.644 16.9935 136.021 16.9935C135.665 16.9935 135.351 17.038 135.077 17.127C134.804 17.2096 134.56 17.3303 134.343 17.4892L134.134 18.8809H132.361L132.342 16.3358C132.844 15.999 133.406 15.7353 134.029 15.5446C134.658 15.354 135.354 15.2586 136.116 15.2586C137.426 15.2586 138.455 15.5668 139.205 16.1833C139.961 16.7997 140.339 17.6767 140.339 18.8142V23.3611C140.339 23.5009 140.339 23.6375 140.339 23.7709C140.346 23.898 140.355 24.0283 140.368 24.1618L141.416 24.2952V25.7632H138.28C138.217 25.5408 138.156 25.3247 138.099 25.115C138.048 24.9053 138.01 24.6956 137.985 24.4859C137.642 24.918 137.225 25.2739 136.736 25.5535C136.247 25.8267 135.7 25.9634 135.097 25.9634ZM135.64 24.1046C136.129 24.1046 136.58 23.9934 136.993 23.7709C137.413 23.5422 137.727 23.2562 137.937 22.913V21.1877H136.336C135.618 21.1877 135.074 21.3561 134.706 21.6929C134.343 22.0234 134.162 22.411 134.162 22.8558C134.162 23.6883 134.655 24.1046 135.64 24.1046ZM142.551 25.7632V24.2952L143.99 24.0092V17.2127L142.475 16.9268V15.4493H146.192L146.306 16.8029C146.637 16.3135 147.056 15.9354 147.565 15.6685C148.073 15.3953 148.661 15.2586 149.328 15.2586C150.002 15.2586 150.577 15.4112 151.054 15.7162C151.536 16.0149 151.902 16.4692 152.15 17.0793C152.467 16.5137 152.884 16.0689 153.398 15.7448C153.92 15.4207 154.53 15.2586 155.229 15.2586C156.258 15.2586 157.072 15.6113 157.669 16.3167C158.266 17.0221 158.565 18.0897 158.565 19.5196V24.0092L160.004 24.2952V25.7632H154.809V24.2952L156.163 24.0092V19.5005C156.163 18.6362 156.017 18.0293 155.724 17.6798C155.432 17.3303 155.003 17.1556 154.437 17.1556C153.91 17.1556 153.475 17.324 153.132 17.6608C152.795 17.9912 152.576 18.4202 152.474 18.9476V24.0092L153.78 24.2952V25.7632H148.775V24.2952L150.081 24.0092V19.5005C150.081 18.668 149.932 18.0707 149.633 17.7084C149.335 17.3398 148.902 17.1556 148.337 17.1556C147.867 17.1556 147.469 17.2509 147.145 17.4415C146.828 17.6322 146.573 17.9022 146.383 18.2518V24.0092L147.736 24.2952V25.7632H142.551ZM161.053 25.7632V24.2952L162.483 24.0092V17.2127L160.967 16.9268V15.4493H164.885V24.0092L166.305 24.2952V25.7632H161.053ZM162.387 13.1139V10.8929H164.885V13.1139H162.387ZM172.167 25.9634C171.202 25.9634 170.363 25.7441 169.651 25.3056C168.946 24.8608 168.399 24.2507 168.011 23.4754C167.63 22.6938 167.439 21.7946 167.439 20.7778V20.4442C167.439 19.4465 167.63 18.5568 168.011 17.7752C168.393 16.9935 168.936 16.3803 169.641 15.9354C170.353 15.4842 171.192 15.2586 172.158 15.2586C173.041 15.2586 173.81 15.4016 174.465 15.6876C175.119 15.9672 175.656 16.3167 176.076 16.7361L176.085 19.491H174.255L173.902 17.6703C173.724 17.486 173.499 17.3398 173.226 17.2318C172.952 17.1174 172.654 17.0602 172.33 17.0602C171.535 17.0602 170.922 17.3748 170.49 18.0039C170.058 18.6267 169.842 19.4401 169.842 20.4442V20.7778C169.842 21.8708 170.058 22.7002 170.49 23.2657C170.928 23.8313 171.491 24.1141 172.177 24.1141C172.724 24.1141 173.172 23.9648 173.521 23.6661C173.871 23.3674 174.099 22.9543 174.207 22.4269H176.285L176.314 22.4841C176.2 23.4945 175.809 24.327 175.142 24.9815C174.481 25.6361 173.489 25.9634 172.167 25.9634ZM181.976 25.9634C181.239 25.9634 180.55 25.8935 179.908 25.7537C179.272 25.6075 178.634 25.3946 177.992 25.115L177.963 22.3888H179.688L180.051 23.8758C180.33 24.0029 180.613 24.0982 180.899 24.1618C181.185 24.2253 181.506 24.2571 181.862 24.2571C182.548 24.2571 183.031 24.1363 183.311 23.8949C183.597 23.6534 183.74 23.3547 183.74 22.9988C183.74 22.662 183.59 22.3697 183.292 22.1219C182.999 21.874 182.437 21.6611 181.604 21.4832C180.365 21.2163 179.456 20.8287 178.878 20.3203C178.3 19.8055 178.011 19.1383 178.011 18.3185C178.011 17.7593 178.16 17.2477 178.459 16.7838C178.764 16.3199 179.209 15.9513 179.793 15.6781C180.384 15.4048 181.109 15.2682 181.967 15.2682C182.748 15.2682 183.441 15.3508 184.045 15.516C184.655 15.6749 185.173 15.8878 185.598 16.1547L185.665 18.776H183.949L183.654 17.4129C183.241 17.1206 182.713 16.9744 182.071 16.9744C181.544 16.9744 181.128 17.092 180.823 17.3271C180.518 17.5559 180.365 17.8451 180.365 18.1946C180.365 18.4996 180.486 18.7633 180.727 18.9857C180.969 19.2082 181.503 19.4115 182.329 19.5958C183.67 19.9072 184.629 20.3139 185.208 20.8159C185.786 21.318 186.075 21.9821 186.075 22.8082C186.075 23.7296 185.738 24.4859 185.065 25.0769C184.391 25.6679 183.362 25.9634 181.976 25.9634Z" fill="white"/>
</svg>
