<svg width="30" height="30" viewBox="0 0 30 30" fill="none" xmlns="http://www.w3.org/2000/svg">
<g opacity="0.2">
<path d="M26.1837 10.3814C26.1711 9.43466 25.9939 8.49735 25.66 7.61138C25.3704 6.86407 24.9282 6.18538 24.3614 5.61867C23.7947 5.05196 23.116 4.60969 22.3687 4.32013C21.4942 3.99183 20.5702 3.81431 19.6362 3.79513C18.4337 3.74138 18.0525 3.72638 15 3.72638C11.9475 3.72638 11.5562 3.72638 10.3625 3.79513C9.42893 3.81445 8.50542 3.99196 7.63123 4.32013C6.8838 4.60949 6.20501 5.05169 5.63827 5.61842C5.07154 6.18516 4.62934 6.86395 4.33998 7.61138C4.01102 8.48529 3.83389 9.40902 3.81623 10.3426C3.76248 11.5464 3.74623 11.9276 3.74623 14.9801C3.74623 18.0326 3.74623 18.4226 3.81623 19.6176C3.83498 20.5526 4.01123 21.4751 4.33998 22.3514C4.62983 23.0986 5.07235 23.7771 5.63928 24.3436C6.2062 24.9101 6.88506 25.3521 7.63248 25.6414C8.50427 25.9829 9.42795 26.1731 10.3637 26.2039C11.5675 26.2576 11.9487 26.2739 15.0012 26.2739C18.0537 26.2739 18.445 26.2739 19.6387 26.2039C20.5727 26.1855 21.4967 26.0084 22.3712 25.6801C23.1183 25.3902 23.7969 24.9478 24.3635 24.3812C24.9302 23.8145 25.3726 23.136 25.6625 22.3889C25.9912 21.5139 26.1675 20.5914 26.1862 19.6551C26.24 18.4526 26.2562 18.0714 26.2562 15.0176C26.2537 11.9651 26.2537 11.5776 26.1837 10.3814ZM14.9925 20.7526C11.8 20.7526 9.21373 18.1664 9.21373 14.9739C9.21373 11.7814 11.8 9.19513 14.9925 9.19513C16.5251 9.19513 17.9949 9.80396 19.0787 10.8877C20.1624 11.9714 20.7712 13.4413 20.7712 14.9739C20.7712 16.5065 20.1624 17.9763 19.0787 19.0601C17.9949 20.1438 16.5251 20.7526 14.9925 20.7526ZM21.0012 10.3289C20.255 10.3289 19.6537 9.72638 19.6537 8.98138C19.6537 8.80451 19.6886 8.62936 19.7563 8.46595C19.8239 8.30254 19.9232 8.15406 20.0482 8.029C20.1733 7.90393 20.3218 7.80472 20.4852 7.73703C20.6486 7.66934 20.8237 7.6345 21.0006 7.6345C21.1775 7.6345 21.3526 7.66934 21.516 7.73703C21.6794 7.80472 21.8279 7.90393 21.953 8.029C22.0781 8.15406 22.1773 8.30254 22.245 8.46595C22.3126 8.62936 22.3475 8.80451 22.3475 8.98138C22.3475 9.72638 21.745 10.3289 21.0012 10.3289Z" fill="white"/>
<path d="M14.9925 18.7274C17.0656 18.7274 18.7462 17.0468 18.7462 14.9737C18.7462 12.9005 17.0656 11.2199 14.9925 11.2199C12.9194 11.2199 11.2387 12.9005 11.2387 14.9737C11.2387 17.0468 12.9194 18.7274 14.9925 18.7274Z" fill="white"/>
</g>
</svg>
