<svg width="17" height="17" viewBox="0 0 17 17" fill="none" xmlns="http://www.w3.org/2000/svg">
<g clip-path="url(#clip0)">
<path opacity="0.3" d="M11.5613 0.551333C12.3733 0.588667 12.9347 0.708 13.4533 0.909333C13.9451 1.09321 14.3903 1.38319 14.7573 1.75867C15.1328 2.12566 15.4228 2.57088 15.6067 3.06267C15.808 3.582 15.9273 4.14267 15.9647 4.95467C16.0107 5.96133 16.016 6.316 16.016 8.5C16.016 10.684 16.0107 11.0387 15.9647 12.0453C15.9273 12.8573 15.808 13.4187 15.6067 13.938C15.4227 14.4295 15.1327 14.8745 14.7573 15.2413C14.3903 15.6168 13.9451 15.9068 13.4533 16.0907C12.934 16.292 12.3733 16.4113 11.5613 16.4487C10.5547 16.4947 10.2007 16.5 8.01599 16.5C5.83132 16.5 5.47666 16.4947 4.47066 16.4487C3.65866 16.4113 3.09732 16.292 2.57799 16.0907C2.08643 15.9067 1.64144 15.6167 1.27466 15.2413C0.899185 14.8743 0.609198 14.4291 0.425325 13.9373C0.223991 13.418 0.104658 12.8573 0.0673245 12.0453C0.0213245 11.04 0.0159912 10.6853 0.0159912 8.5C0.0159912 6.31533 0.0213245 5.96 0.0673245 4.95467C0.104658 4.14267 0.223991 3.58133 0.425325 3.06267C0.609198 2.57088 0.899185 2.12566 1.27466 1.75867C1.64146 1.38328 2.08644 1.09329 2.57799 0.909333C3.09799 0.708 3.65866 0.588667 4.47066 0.551333C5.47599 0.505333 5.83066 0.5 8.01599 0.5C10.2007 0.5 10.556 0.505333 11.5613 0.551333ZM8.01599 2.278C5.85599 2.278 5.52532 2.28267 4.55132 2.32733C3.93332 2.35533 3.56266 2.434 3.22199 2.56667C2.93199 2.68 2.74732 2.8 2.53132 3.01533C2.31532 3.23133 2.19532 3.416 2.08266 3.706C1.95066 4.046 1.87132 4.41733 1.84332 5.03533C1.79866 6.00933 1.79399 6.34 1.79399 8.5C1.79399 10.66 1.79866 10.9907 1.84332 11.9647C1.87132 12.5827 1.94999 12.9533 2.08266 13.2933C2.19599 13.584 2.31599 13.7687 2.53132 13.9847C2.74732 14.2007 2.93199 14.3207 3.22199 14.4333C3.56199 14.5653 3.93332 14.6447 4.55132 14.6727C5.52599 14.7173 5.85666 14.722 8.01599 14.722C10.176 14.722 10.506 14.7173 11.4807 14.6727C12.0987 14.6447 12.4693 14.566 12.81 14.4333C13.1 14.32 13.2847 14.2 13.5007 13.9847C13.7167 13.7687 13.8367 13.584 13.9493 13.294C14.0813 12.954 14.1607 12.5827 14.1887 11.9647C14.2333 10.99 14.238 10.6593 14.238 8.5C14.238 6.34067 14.2333 6.01 14.1887 5.03533C14.1607 4.41733 14.082 4.04667 13.9493 3.70667C13.8551 3.44472 13.7015 3.20812 13.5007 3.01533C13.3079 2.81447 13.0713 2.66092 12.8093 2.56667C12.4693 2.43467 12.098 2.35533 11.48 2.32733C10.506 2.28267 10.1753 2.278 8.01532 2.278H8.01599ZM8.01599 12.648C6.91587 12.648 5.86081 12.211 5.08291 11.4331C4.30501 10.6552 3.86799 9.60012 3.86799 8.5C3.86799 7.39988 4.30501 6.34482 5.08291 5.56692C5.86081 4.78902 6.91587 4.352 8.01599 4.352C9.11611 4.352 10.1712 4.78902 10.9491 5.56692C11.727 6.34482 12.164 7.39988 12.164 8.5C12.164 9.60012 11.727 10.6552 10.9491 11.4331C10.1712 12.211 9.11611 12.648 8.01599 12.648ZM8.01599 10.8707C8.64473 10.8707 9.24772 10.6209 9.69231 10.1763C10.1369 9.73173 10.3867 9.12874 10.3867 8.5C10.3867 7.87126 10.1369 7.26827 9.69231 6.82369C9.24772 6.3791 8.64473 6.12933 8.01599 6.12933C7.38725 6.12933 6.78426 6.3791 6.33968 6.82369C5.89509 7.26827 5.64532 7.87126 5.64532 8.5C5.64532 9.12874 5.89509 9.73173 6.33968 10.1763C6.78426 10.6209 7.38725 10.8707 8.01599 10.8707ZM12.164 5.24067C11.9282 5.24067 11.7021 5.147 11.5354 4.98028C11.3687 4.81356 11.275 4.58744 11.275 4.35167C11.275 4.11589 11.3687 3.88977 11.5354 3.72305C11.7021 3.55633 11.9282 3.46267 12.164 3.46267C12.3998 3.46267 12.6259 3.55633 12.7926 3.72305C12.9593 3.88977 13.053 4.11589 13.053 4.35167C13.053 4.58744 12.9593 4.81356 12.7926 4.98028C12.6259 5.147 12.3998 5.24067 12.164 5.24067Z" fill="#516C85"/>
</g>
<defs>
<clipPath id="clip0">
<rect width="16" height="16" fill="white" transform="translate(0.0159912 0.5)"/>
</clipPath>
</defs>
</svg>
