<svg width="24" height="24" viewBox="0 0 24 24" fill="none" xmlns="http://www.w3.org/2000/svg">
<g opacity="0.8">
<path d="M2.59266 19.7527L7.00312 15.3422C5.94128 13.9286 5.36807 12.208 5.37 10.44C5.37 5.92406 9.04406 2.25 13.56 2.25C18.0759 2.25 21.75 5.92406 21.75 10.44C21.75 14.9559 18.0759 18.63 13.56 18.63C11.792 18.6319 10.0714 18.0587 8.65781 16.9969L4.24734 21.4073C4.02408 21.6069 3.7329 21.7135 3.43356 21.7051C3.13422 21.6967 2.84945 21.574 2.6377 21.3623C2.42596 21.1506 2.3033 20.8658 2.29493 20.5664C2.28655 20.2671 2.39308 19.9759 2.59266 19.7527ZM19.41 10.44C19.41 9.28298 19.0669 8.15194 18.4241 7.18991C17.7813 6.22789 16.8676 5.47808 15.7987 5.03531C14.7297 4.59253 13.5535 4.47668 12.4187 4.70241C11.2839 4.92813 10.2416 5.48529 9.42342 6.30343C8.60529 7.12156 8.04813 8.16393 7.8224 9.29872C7.59668 10.4335 7.71253 11.6098 8.1553 12.6787C8.59808 13.7476 9.34789 14.6613 10.3099 15.3041C11.2719 15.9469 12.403 16.29 13.56 16.29C15.1109 16.2881 16.5978 15.6712 17.6945 14.5745C18.7912 13.4778 19.4081 11.9909 19.41 10.44Z" fill="#516C85"/>
</g>
</svg>
